<svg xmlns="http://www.w3.org/2000/svg" width="1200" height="400" viewBox="0 0 1200 400">
  <defs>
    <radialGradient id="parchment" cx="50%" cy="50%" r="70%">
      <stop offset="0%" style="stop-color:#f4e4c1"/>
      <stop offset="60%" style="stop-color:#e8d5a3"/>
      <stop offset="100%" style="stop-color:#c4a265"/>
    </radialGradient>
    <radialGradient id="vignette" cx="50%" cy="50%" r="60%">
      <stop offset="0%" style="stop-color:transparent"/>
      <stop offset="100%" style="stop-color:rgba(80,50,20,0.35)"/>
    </radialGradient>
  </defs>
  <rect width="1200" height="400" fill="url(#parchment)" rx="8"/>
  <rect width="1200" height="400" fill="url(#vignette)" rx="8"/>
  <rect x="12" y="12" width="1176" height="376" fill="none" stroke="#8b6914" stroke-width="2" rx="4"/>
  <rect x="18" y="18" width="1164" height="364" fill="none" stroke="#8b6914" stroke-width="0.5" rx="3" stroke-dasharray="8,4"/>
  <g transform="translate(28,28)" fill="none" stroke="#6b4c11" stroke-width="1.2">
    <path d="M0,30 Q0,0 30,0"/><path d="M0,25 Q0,5 25,5"/>
    <circle cx="0" cy="30" r="2" fill="#6b4c11"/><circle cx="30" cy="0" r="2" fill="#6b4c11"/>
  </g>
  <g transform="translate(1172,28) scale(-1,1)" fill="none" stroke="#6b4c11" stroke-width="1.2">
    <path d="M0,30 Q0,0 30,0"/><path d="M0,25 Q0,5 25,5"/>
    <circle cx="0" cy="30" r="2" fill="#6b4c11"/><circle cx="30" cy="0" r="2" fill="#6b4c11"/>
  </g>
  <g transform="translate(28,372) scale(1,-1)" fill="none" stroke="#6b4c11" stroke-width="1.2">
    <path d="M0,30 Q0,0 30,0"/><path d="M0,25 Q0,5 25,5"/>
    <circle cx="0" cy="30" r="2" fill="#6b4c11"/><circle cx="30" cy="0" r="2" fill="#6b4c11"/>
  </g>
  <g transform="translate(1172,372) scale(-1,-1)" fill="none" stroke="#6b4c11" stroke-width="1.2">
    <path d="M0,30 Q0,0 30,0"/><path d="M0,25 Q0,5 25,5"/>
    <circle cx="0" cy="30" r="2" fill="#6b4c11"/><circle cx="30" cy="0" r="2" fill="#6b4c11"/>
  </g>
  <g transform="translate(130,200)" fill="none" stroke="#8b6914" stroke-width="0.8" opacity="0.5">
    <circle cx="0" cy="0" r="45"/><circle cx="0" cy="0" r="35"/><circle cx="0" cy="0" r="3" fill="#8b6914"/>
    <line x1="0" y1="-45" x2="0" y2="-55"/><line x1="0" y1="45" x2="0" y2="55"/>
    <line x1="-45" y1="0" x2="-55" y2="0"/><line x1="45" y1="0" x2="55" y2="0"/>
    <polygon points="0,-40 5,-10 40,0 5,10 0,40 -5,10 -40,0 -5,-10" fill="#8b6914" opacity="0.15" stroke="none"/>
    <text x="0" y="-58" font-family="Georgia,serif" font-size="10" fill="#6b4c11" text-anchor="middle" font-style="italic">N</text>
    <text x="0" y="68" font-family="Georgia,serif" font-size="10" fill="#6b4c11" text-anchor="middle" font-style="italic">S</text>
    <text x="-60" y="4" font-family="Georgia,serif" font-size="10" fill="#6b4c11" text-anchor="middle" font-style="italic">W</text>
    <text x="60" y="4" font-family="Georgia,serif" font-size="10" fill="#6b4c11" text-anchor="middle" font-style="italic">E</text>
  </g>
  <g transform="translate(1070,200)" fill="none" stroke="#8b6914" stroke-width="0.6" opacity="0.35">
    <circle cx="0" cy="0" r="30"/><circle cx="0" cy="0" r="22"/><circle cx="0" cy="0" r="2" fill="#8b6914"/>
    <polygon points="0,-28 3,-7 28,0 3,7 0,28 -3,7 -28,0 -3,-7" fill="#8b6914" opacity="0.12" stroke="none"/>
  </g>
  <g stroke="#a08050" stroke-width="0.3" opacity="0.15">
    <path d="M200,350 Q350,320 400,340 Q500,360 550,330"/>
    <path d="M650,60 Q700,80 800,55 Q900,40 950,70"/>
    <path d="M800,330 Q870,310 950,340 Q1000,350 1050,330"/>
  </g>
  <g transform="translate(600,60)" fill="none" stroke="#6b4c11" stroke-width="0.8" opacity="0.6">
    <path d="M-200,0 Q-150,-15 -100,0 Q-50,12 0,0 Q50,-12 100,0 Q150,15 200,0"/>
    <circle cx="-200" cy="0" r="2" fill="#6b4c11"/><circle cx="200" cy="0" r="2" fill="#6b4c11"/>
  </g>
  <text x="600" y="140" font-family="Georgia,'Times New Roman',serif" font-size="72" font-weight="bold" font-style="italic" fill="#3d2b1f" text-anchor="middle" letter-spacing="4">Marcus Domenicano</text>
  <g transform="translate(600,160)" fill="none" stroke="#8b6914" stroke-width="0.6" opacity="0.7">
    <path d="M-160,0 Q-120,-8 -80,0 Q-40,6 0,0 Q40,-6 80,0 Q120,8 160,0"/>
  </g>
  <text x="600" y="195" font-family="Georgia,'Times New Roman',serif" font-size="18" font-style="italic" fill="#6b4c11" text-anchor="middle" letter-spacing="6">~ the initials were never a coincidence ~</text>
  <text x="600" y="235" font-family="Georgia,'Times New Roman',serif" font-size="28" font-style="italic" fill="#8b6914" text-anchor="middle" letter-spacing="2" opacity="0.8">.md</text>
  <text x="600" y="280" font-family="Georgia,'Times New Roman',serif" font-size="15" fill="#5a3e1b" text-anchor="middle" letter-spacing="1">Content Cartographer for Claude Code</text>
  <text x="600" y="320" font-family="Georgia,'Times New Roman',serif" font-size="13" fill="#7a5c2e" text-anchor="middle" letter-spacing="3" font-style="italic">Images · Documents · PDFs · Websites · Raw Text</text>
  <g transform="translate(600,345)" fill="none" stroke="#6b4c11" stroke-width="0.8" opacity="0.6">
    <path d="M-200,0 Q-150,12 -100,0 Q-50,-10 0,0 Q50,10 100,0 Q150,-12 200,0"/>
    <circle cx="-200" cy="0" r="2" fill="#6b4c11"/><circle cx="200" cy="0" r="2" fill="#6b4c11"/>
  </g>
  <g fill="none" stroke="#8b6914" stroke-width="0.5" opacity="0.3">
    <g transform="translate(280,140)"><line x1="-4" y1="0" x2="4" y2="0"/><line x1="0" y1="-4" x2="0" y2="4"/></g>
    <g transform="translate(920,140)"><line x1="-4" y1="0" x2="4" y2="0"/><line x1="0" y1="-4" x2="0" y2="4"/></g>
    <g transform="translate(350,290)"><line x1="-4" y1="0" x2="4" y2="0"/><line x1="0" y1="-4" x2="0" y2="4"/></g>
    <g transform="translate(850,290)"><line x1="-4" y1="0" x2="4" y2="0"/><line x1="0" y1="-4" x2="0" y2="4"/></g>
  </g>
</svg>
